<svg viewBox="0 0 16 16"><path fill="#586e75" d="m 15.9995,4.05343 0,7.08905 q 0,0.58926 -0.41963,1.00889 -0.41963,0.41963 -1.0089,0.41963 l -13.1424,0 q -0.58927,0 -1.0089,-0.41963 Q 4e-5,11.73174 4e-5,11.14248 l 0,-7.08905 Q 0.39289,4.49092 0.9018,4.83019 4.13383,7.02655 5.33915,7.91044 5.84806,8.28543 6.16501,8.49525 6.48196,8.70506 7.00873,8.9238 7.5355,9.14255 7.99084,9.14255 l 0.0179,0 q 0.45534,0 0.98211,-0.21875 0.52677,-0.21874 0.84372,-0.42855 0.31695,-0.20982 0.82586,-0.58481 1.51781,-1.09817 4.44628,-3.08025 0.50891,-0.3482 0.89283,-0.77676 z m 0,-2.62491 q 0,0.70534 -0.43749,1.34817 -0.43748,0.64284 -1.08925,1.09818 -3.35702,2.33028 -4.17843,2.90168 -0.0893,0.0625 -0.37945,0.27232 Q 9.62471,7.25868 9.43276,7.38814 9.2408,7.5176 8.96849,7.67831 8.69617,7.83902 8.45511,7.91937 8.21405,7.99977 8.0087,7.99977 l -0.0179,0 q -0.20535,0 -0.44641,-0.0804 Q 7.30333,7.83907 7.03101,7.67831 6.7587,7.5176 6.56674,7.38814 6.37479,7.25868 6.08462,7.04887 5.79445,6.83905 5.70517,6.77655 4.89269,6.20515 3.36596,5.14715 1.83923,4.08915 1.53566,3.87487 0.98211,3.49988 0.49106,2.84365 0,2.18743 0,1.62494 0,0.92854 0.37053,0.46427 0.74105,0 1.42853,0 l 13.1424,0 q 0.58034,0 1.00443,0.41963 0.4241,0.41963 0.4241,1.00889 z" /></svg>
