<svg viewBox="0 0 16 16"><path fill="#586e75" d="m 15.750997,0.09821 q 0.29465,0.21429 0.24108,0.57143 l -2.28572,13.71429 q -0.0446,0.25893 -0.28571,0.40179 -0.125,0.0714 -0.27679,0.0714 -0.0982,0 -0.21428,-0.0447 l -4.0446504,-1.65178 -2.16071,2.63393 Q 6.5634966,16 6.2867166,16 q -0.11608,0 -0.19643,-0.0357 -0.16965,-0.0625 -0.27232,-0.20982 -0.10268,-0.14732 -0.10268,-0.3259 l 0,-3.11607 L 13.429577,2.85715 3.8849266,11.11608 0.35813658,9.66965 Q 0.02778658,9.54465 9.9657864e-4,9.17858 -0.01690342,8.82144 0.28670658,8.6518 L 15.143857,0.08036 Q 15.277787,0 15.429577,0 q 0.17857,0 0.32142,0.0982 z"/></svg>
